<svg xmlns="http://www.w3.org/2000/svg" width="36" height="36" viewBox="0 0 36 36" fill="none">
  <path d="M12.5 18L16.1667 21.6667L23.5 14.3333M1.5 18C1.5 20.1668 1.92678 22.3124 2.75599 24.3143C3.58519 26.3161 4.80057 28.1351 6.33274 29.6673C7.8649 31.1994 9.68385 32.4148 11.6857 33.244C13.6876 34.0732 15.8332 34.5 18 34.5C20.1668 34.5 22.3124 34.0732 24.3143 33.244C26.3161 32.4148 28.1351 31.1994 29.6673 29.6673C31.1994 28.1351 32.4148 26.3161 33.244 24.3143C34.0732 22.3124 34.5 20.1668 34.5 18C34.5 15.8332 34.0732 13.6876 33.244 11.6857C32.4148 9.68385 31.1994 7.86491 29.6673 6.33274C28.1351 4.80057 26.3161 3.58519 24.3143 2.75599C22.3124 1.92679 20.1668 1.5 18 1.5C15.8332 1.5 13.6876 1.92679 11.6857 2.75599C9.68385 3.58519 7.8649 4.80057 6.33274 6.33274C4.80057 7.86491 3.58519 9.68385 2.75599 11.6857C1.92678 13.6876 1.5 15.8332 1.5 18Z" stroke="#20201E" strokeWidth="2" strokeLinecap="round" strokeLinejoin="round"/>
</svg>