<svg width="24" height="17" viewBox="0 0 24 17" fill="none" xmlns="http://www.w3.org/2000/svg">
<path d="M5.274 6.5C6.31235 6.5 7.32739 6.80791 8.19074 7.38478C9.0541 7.96166 9.72701 8.7816 10.1244 9.74091C10.5217 10.7002 10.6257 11.7558 10.4231 12.7742C10.2206 13.7926 9.72054 14.7281 8.98631 15.4623C8.25208 16.1965 7.31662 16.6966 6.29822 16.8991C5.27982 17.1017 4.22422 16.9977 3.26491 16.6004C2.3056 16.203 1.48566 15.5301 0.908785 14.6667C0.331907 13.8034 0.024 12.7884 0.024 11.75L0 11C0 8.21523 1.10625 5.54451 3.07538 3.57538C5.04451 1.60625 7.71523 0.5 10.5 0.5V3.5C9.51465 3.49735 8.53856 3.69007 7.62815 4.067C6.71774 4.44393 5.89109 4.9976 5.196 5.696C4.92584 5.96565 4.67662 6.25549 4.4505 6.563C4.719 6.521 4.9935 6.4985 5.2725 6.4985L5.274 6.5ZM18.774 6.5C19.8124 6.5 20.8274 6.80791 21.6907 7.38478C22.5541 7.96166 23.227 8.7816 23.6244 9.74091C24.0217 10.7002 24.1257 11.7558 23.9231 12.7742C23.7206 13.7926 23.2205 14.7281 22.4863 15.4623C21.7521 16.1965 20.8166 16.6966 19.7982 16.8991C18.7798 17.1017 17.7242 16.9977 16.7649 16.6004C15.8056 16.203 14.9857 15.5301 14.4088 14.6667C13.8319 13.8034 13.524 12.7884 13.524 11.75L13.5 11C13.5 8.21523 14.6062 5.54451 16.5754 3.57538C18.5445 1.60625 21.2152 0.5 24 0.5V3.5C23.0147 3.49735 22.0386 3.69007 21.1282 4.067C20.2177 4.44393 19.3911 4.9976 18.696 5.696C18.4258 5.96565 18.1766 6.25549 17.9505 6.563C18.219 6.521 18.4935 6.4985 18.774 6.4985V6.5Z" fill="#20201E"/>
</svg>
